# xmcd
#
# Track frame offsets: 
#        150
#        13963
#        32854
#        56238
#        73615
#        90841
#        110620
#        126128
#        145231
#        162930
#        176445
#        195974
#
# Disc length: 2823 seconds
#
# Revision: 0
# Processed by: cddbd v1.5.2PL0 Copyright (c) Steve Scherf et al.
# Submitted via: ExactAudioCopy v1.1
#
DISCID=a10b050c
DTITLE=Lauren Dillon - The Cost Of Living
DYEAR=2003
DGENRE=Country
TTITLE0=Travel Light
TTITLE1=The Cost Of Living
TTITLE2=Them Old Blues
TTITLE3=End Of The Road
TTITLE4=Whirlwind
TTITLE5=Climbing Walls
TTITLE6=In A Heartbeat
TTITLE7=Home Away From Home
TTITLE8=Loverproof
TTITLE9=Shine
TTITLE10=Matter Of Perspective
TTITLE11=Rib From Your Side
EXTD=
EXTT0=
EXTT1=
EXTT2=
EXTT3=
EXTT4=
EXTT5=
EXTT6=
EXTT7=
EXTT8=
EXTT9=
EXTT10=
EXTT11=
PLAYORDER=
